<?xml version="1.0"?>
<svg version="1.1" xmlns="http://www.w3.org/2000/svg" width="400px" height="200px" style="border: dashed 2px #aaa"><path fill="#2892de" d="M48.47,137.962c0,1.628-0.666,1.998-1.776,1.998l-4.958,0c-1.11,0-2.072-0.518-2.812-1.554l-24.124-33.004l-0.148,0l0,32.634c0,1.406-0.666,1.924-1.924,1.924l-5.328,0c-1.406,0-1.998-0.37-1.998-1.85l0-47.36c0-1.554,0.666-1.998,1.998-1.998l4.81,0c1.184,0,1.776,0.37,2.516,1.406l24.346,33.448l0.148,0l0-32.93c0-1.406,0.666-1.924,1.924-1.924l5.55,0c1.554,0,1.776,0.814,1.776,1.998l0,47.212z M94.239,121.904c0,1.776-0.592,2.146-2.442,2.146l-21.682,0c0.592,5.698,4.736,9.62,10.582,9.62c3.108,0,6.364-0.74,9.102-1.776c0.296-0.074,0.518-0.222,0.814-0.222c0.518,0,0.888,0.296,1.036,0.888l1.036,3.774c0.074,0.37,0.148,0.666,0.148,0.888c0,0.518-0.296,0.888-1.184,1.258c-3.626,1.628-8.584,2.368-12.432,2.368c-11.618,0-18.5-7.4-18.5-18.944c0-11.1,7.326-18.796,18.352-18.796c4.514,0,8.214,1.702,10.804,4.44c3.404,3.552,4.366,8.214,4.366,13.246l0,1.11z M85.433,118.204l0-0.814c-0.148-3.848-2.368-7.4-6.882-7.4c-4.81,0-7.696,3.848-8.288,8.214l15.17,0z M152.958,105.032c0,0.222,0,0.37-0.074,0.592l-9.916,32.56c-0.37,1.11-0.962,1.776-2.294,1.776l-5.032,0c-1.332,0-1.924-0.666-2.294-1.85l-6.142-21.09l-0.148,0l-6.068,21.238c-0.37,1.184-1.036,1.702-2.368,1.702l-4.958,0c-1.184,0-1.998-0.74-2.294-1.776l-9.694-32.56c-0.074-0.222-0.074-0.444-0.074-0.592c0-0.666,0.518-0.962,1.48-0.962l6.068,0c1.406,0,1.85,0.518,2.072,1.406l5.328,23.384l0.074,0l6.882-23.31c0.296-1.11,1.036-1.48,1.998-1.48l4.144,0c1.11,0,1.776,0.37,1.998,1.258l6.734,23.68l0.074,0l5.55-23.31c0.222-1.036,0.814-1.628,2.146-1.628l5.698,0c0.888,0,1.11,0.444,1.11,0.962z M186.887,129.378c0,7.77-6.734,11.47-14.282,11.47c-3.848,0-8.066-1.11-11.396-2.59c-0.666-0.296-0.888-0.74-0.888-1.184c0-0.222,0.074-0.444,0.148-0.666l1.184-3.774c0.222-0.74,0.592-1.036,1.036-1.036c0.222,0,0.444,0,0.814,0.148c3.256,1.332,6.734,2.294,9.324,2.294c3.256,0,5.476-1.48,5.476-3.922c0-2.072-1.406-3.182-4.44-4.366l-5.846-2.22c-4.218-1.554-7.622-4.81-7.622-9.842c0-7.252,6.808-10.582,13.394-10.582c3.552,0,7.03,0.592,10.73,2.22c0.592,0.296,0.888,0.592,0.888,1.036c0,0.222-0.074,0.444-0.148,0.74l-1.258,3.996c-0.148,0.518-0.518,0.814-1.036,0.814c-0.222,0-0.518-0.074-0.74-0.148c-2.442-0.962-5.624-1.776-7.992-1.776c-3.108,0-4.662,1.702-4.662,3.404c0,1.628,0.814,2.664,3.626,3.774l6.66,2.738c3.922,1.628,7.03,4.662,7.03,9.472z M256.595,138.184c0,1.11-0.518,1.776-1.628,1.776l-36.038,0c-0.962,0-1.406-0.666-1.406-1.554l0-2.294c0-0.888,0.148-1.48,0.74-2.368l24.494-37.222l0-0.074l-21.682,0c-1.332,0-1.85-0.444-1.85-1.702l0-4.514c0-0.962,0.444-1.48,1.48-1.48l33.078,0c1.332,0,1.776,0.666,1.776,1.628l0,1.776c0,1.11-0.148,2.072-0.888,3.182l-24.346,36.852l0,0.074l24.568,0c1.11,0,1.702,0.518,1.702,1.702l0,4.218z M301.328,121.978c0,10.656-6.512,18.87-18.056,18.87c-12.062,0-17.612-8.14-17.612-18.944c0-10.656,6.512-18.796,18.056-18.796c12.062,0,17.612,7.992,17.612,18.87z M292.078,121.978c0-6.068-1.924-11.84-8.436-11.84c-6.586,0-8.732,5.698-8.732,11.618c0,6.068,1.85,12.062,8.436,12.062c6.512,0,8.732-5.772,8.732-11.84z M345.099,138.036c0,1.258-0.444,1.924-1.776,1.924l-5.328,0c-1.332,0-1.776-0.666-1.776-1.924l0-20.128c0-4.07-1.11-6.956-5.624-6.956c-2.886,0-6.438,1.554-8.732,3.552l0,23.606c0,1.258-0.518,1.85-1.776,1.85l-5.402,0c-1.11,0-1.776-0.592-1.776-1.776l0-32.264c0-1.184,0.518-1.85,1.85-1.85l4.81,0c1.036,0,1.702,0.296,1.776,1.406l0.074,1.924c3.404-2.738,7.696-4.292,11.988-4.292c8.288,0,11.692,5.18,11.692,13.246l0,21.682z M390.202,121.904c0,1.776-0.592,2.146-2.442,2.146l-21.682,0c0.592,5.698,4.736,9.62,10.582,9.62c3.108,0,6.364-0.74,9.102-1.776c0.296-0.074,0.518-0.222,0.814-0.222c0.518,0,0.888,0.296,1.036,0.888l1.036,3.774c0.074,0.37,0.148,0.666,0.148,0.888c0,0.518-0.296,0.888-1.184,1.258c-3.626,1.628-8.584,2.368-12.432,2.368c-11.618,0-18.5-7.4-18.5-18.944c0-11.1,7.326-18.796,18.352-18.796c4.514,0,8.214,1.702,10.804,4.44c3.404,3.552,4.366,8.214,4.366,13.246l0,1.11z M381.396,118.204l0-0.814c-0.148-3.848-2.368-7.4-6.882-7.4c-4.81,0-7.696,3.848-8.288,8.214l15.17,0z"/><path fill="#" d=""/></svg>
